<?xml version="1.0" encoding="utf-8"?>
<!-- Generator: Adobe Illustrator 26.0.3, SVG Export Plug-In . SVG Version: 6.00 Build 0)  -->
<svg version="1.1" id="Layer_1" xmlns="http://www.w3.org/2000/svg" xmlns:xlink="http://www.w3.org/1999/xlink" x="0px" y="0px"
	 viewBox="0 0 428.1 453.8" style="enable-background:new 0 0 428.1 453.8;" xml:space="preserve">
<style type="text/css">
	.st0{fill:#0A537F;}
	.st1{fill-rule:evenodd;clip-rule:evenodd;fill:#333333;}
</style>
<g>
	<g>
		<path class="st0" d="M338.9,0H71.3L0,35.5v35.8h71.3v196.2c0.1,49.3,40.1,89.1,89.4,89.1h178.3c49.2,0,89.1-39.9,89.1-89.1V89.1
			C428.1,39.9,388.2,0,338.9,0z M392.3,259.6c0,33.8-27.4,61.2-61.2,61.2H168.2c-33.8,0-61.2-27.4-61.2-61.2V96.7
			c0-33.8,27.4-61.2,61.2-61.2h162.9c33.8,0,61.2,27.4,61.2,61.2V259.6z"/>
		<path class="st0" d="M275.7,261.7c-1.9-6.8-9-10.8-15.8-8.9c-0.1,0-0.1,0-0.2,0.1c-22.2,6-45.1-7.1-51.1-29.4
			c0-0.1-0.1-0.2-0.1-0.4c-1.8-6.7-8.8-10.7-15.5-8.8c-6.8,1.9-10.9,8.9-9.2,15.8c7.8,29.4,34.4,49.8,64.9,49.7
			c6,0.1,12.1-0.7,17.9-2.3C273.4,275.6,277.4,268.6,275.7,261.7C275.7,261.7,275.7,261.7,275.7,261.7z"/>
		<path class="st0" d="M294.1,107c-14.7,0-26.7,12-26.7,26.8v17.6c0,14.8,12,26.8,26.7,26.8s26.7-12,26.7-26.8v-17.6
			C320.8,119,308.9,107,294.1,107z"/>
		<path class="st0" d="M205,178.3c14.7,0,26.7-12,26.7-26.8v-17.6c0-14.8-12-26.8-26.7-26.8c-14.7,0-26.7,12-26.7,26.8v17.6
			C178.3,166.3,190.2,178.3,205,178.3z"/>
	</g>
	<path class="st1" d="M428.1,393.5v59.8h-10.3v-3.7c-2.1,1.5-4.3,2.7-6.6,3.7c-2.5,0.8-5,1.1-7.6,1.1c-2.7,0-5.5-0.4-8-1.4
		c-2.4-0.9-4.7-2.2-6.6-3.9c-2.6-2.3-4.8-5.1-6.4-8.3c-1.4-3.3-2.1-6.8-2.1-10.3c0-3.3,0.7-6.6,2.1-9.6c1.2-3,3.1-5.8,5.5-8
		c2.1-1.9,4.5-3.3,7.1-4.4c2.7-1.1,5.6-1.6,8.5-1.6c2.6,0,5.3,0.4,7.8,1.1c2.3,0.9,4.5,2.1,6.4,3.7v-18.3L428.1,393.5z M395.1,422.6
		c-5.2,5.2-5.2,13.6,0,18.8c2.6,2.5,6.2,3.9,9.9,3.9c3.3,0,6.5-1.4,8.7-3.9c2.5-2.5,3.8-5.9,3.7-9.4c0-3.6-1.3-7-3.7-9.6
		c-4.9-5.1-13-5.3-18.1-0.4c-0.1,0.1-0.3,0.3-0.4,0.4V422.6z M72.6,413.9c1-2.8,2.3-5.5,3.9-8c2.9-4.2,6.7-7.7,11.2-10.1
		c4.5-2.3,9.4-3.5,14.4-3.4c3.9-0.1,7.9,0.7,11.5,2.3c3.8,1.5,7.2,3.8,10.1,6.6c3,2.8,5.3,6.2,6.6,10.1c5,11.6,2.5,25-6.2,34.1
		c-2.9,2.9-6.3,5.2-10.1,6.9c-3.8,1.6-7.8,2.5-11.9,2.5c-4.2,0.1-8.4-0.7-12.4-2.3c-3.7-1.7-7.1-4.1-9.9-7.1
		c-2.8-2.9-4.9-6.3-6.4-10.1c-1.5-3.7-2.2-7.7-2.3-11.7C71.2,420.4,71.7,417.1,72.6,413.9z M83.6,422.8c0,2.4,0.4,4.8,1.1,7.1
		c1,2.3,2.3,4.3,3.9,6.2c1.7,2,3.8,3.6,6.2,4.6c2.3,1.1,4.8,1.6,7.3,1.6c4.9,0.1,9.7-1.9,13.1-5.5c3.6-3.9,5.5-9,5.3-14.2
		c0-4.9-1.9-9.6-5.3-13.1c-3.3-3.5-8-5.4-12.8-5.3c-5-0.2-9.8,1.7-13.3,5.3c-3.6,3.4-5.5,8.1-5.5,13.1V422.8z M140,408.1h10.3v5
		c1.3-1.9,3-3.4,5-4.6c2.2-0.9,4.5-1.4,6.9-1.4c3,0,6,0.6,8.7,1.8c2.4,1.3,4.5,3.2,6,5.5c0.9,1.8,1.7,3.8,2.3,5.7
		c0.2,3.1,0.2,6.1,0,9.2v22.9h-10.3v-19.9c0.4-4.3-0.3-8.7-2.3-12.6c-1.6-2.3-4.3-3.5-7.1-3.2c-3-0.2-5.9,1.2-7.6,3.7
		c-1.9,4-2.7,8.4-2.3,12.8v19.2H140V408.1z M296.1,411.1h-13.3c-1.5-2.2-3.6-3.9-6-5c-2.5-1.2-5.2-1.9-8-1.8c-2.4,0-4.7,0.4-6.9,1.4
		c-2.2,0.9-4.1,2.2-5.7,3.9c-1.8,1.8-3.2,4-4.1,6.4c-2.8,7.2-1.3,15.3,3.7,21.1c3.4,3.6,8.1,5.5,13.1,5.5c2.7,0,5.3-0.6,7.8-1.6
		c2.3-1,4.3-2.7,5.7-4.8h14.4c-2.4,5.5-6.3,10.3-11.2,13.8c-5,3.2-10.8,4.7-16.7,4.6c-4.3,0-8.5-0.9-12.4-2.5
		c-3.9-1.8-7.3-4.5-10.1-7.8c-2.7-2.7-4.7-6-6-9.6c-1.8-3.8-3-7.8-3.4-11.9c0-4.1,0.7-8.1,2.3-11.9c1.6-3.8,4-7.2,6.9-10.1
		c5.7-5.5,13.4-8.7,21.3-8.7c5.9-0.1,11.7,1.5,16.7,4.6C289.5,400.1,293.6,405.2,296.1,411.1z M314.9,421.2c-2.5,2.4-4,5.7-3.9,9.2
		c0,3.6,1.4,7,3.9,9.6c2.5,2.4,5.8,3.7,9.2,3.7c7,0,12.6-5.6,12.6-12.6c0-0.1,0-0.2,0-0.2c0.1-3.5-1.2-6.9-3.7-9.4
		c-4.5-5-12.2-5.4-17.2-1c-0.3,0.3-0.7,0.6-1,1L314.9,421.2z M306.9,413.9c2.1-2.2,4.6-4,7.3-5.3c3-1.1,6.2-1.7,9.4-1.6
		c2.9-0.1,5.8,0.5,8.5,1.6c2.3,1.2,4.3,2.9,5.7,5v-5.5h10.1V454h-10.1v-6.2c-1.1,2.2-3,3.9-5.3,4.8c-2.7,1.3-5.7,1.9-8.7,1.8
		c-6.3,0.1-12.3-2.4-16.7-6.9c-4.6-4.5-7.1-10.7-6.9-17.2c0-3.1,0.6-6.1,1.8-8.9C303.2,418.7,304.8,416.1,306.9,413.9z M366.7,413.9
		c1.4-1.8,3.1-3.2,5-4.4c2-0.9,4.2-1.4,6.4-1.4v9.9c-3.1-0.1-6.2,1-8.5,3.2c-1.9,2.8-2.8,6.2-2.5,9.6v22.9h-10.3v-45.8h9.9
		L366.7,413.9z M197.3,426.3h24.8c-0.7-2.7-2.3-5-4.6-6.6c-2.3-1.7-5.1-2.6-8-2.5c-2.7,0-5.4,0.9-7.6,2.5c-2.1,1.5-3.6,3.6-4.6,6
		V426.3z M200.3,409.5c2.9-1.4,6-2.1,9.2-2.1c3.8,0,7.6,0.9,11,2.8c3.4,1.7,6.3,4.2,8.5,7.3c1.5,2,2.7,4.3,3.4,6.6
		c0.3,2.7,0.3,5.5,0,8.3v2.3h-35.3c0.1,3,1.6,5.7,3.9,7.6c2.4,2.1,5.5,3.2,8.7,3c2.1,0,4.3-0.4,6.2-1.4c1.8-1.1,3.4-2.6,4.6-4.4
		h11.2c-1.6,4.7-4.7,8.7-8.7,11.5c-3.8,2.8-8.4,4.2-13.1,4.1c-3.2,0-6.4-0.6-9.4-1.8c-2.9-1.2-5.4-3-7.6-5.3c-2.1-2.2-3.8-4.8-5-7.6
		c-1.1-2.9-1.6-5.9-1.6-8.9c-0.1-3.1,0.5-6.1,1.6-8.9c1-2.9,2.6-5.5,4.8-7.6c2-2.7,4.6-4.8,7.6-6.2L200.3,409.5z"/>
</g>
</svg>
