<svg 
 xmlns="http://www.w3.org/2000/svg"
 xmlns:xlink="http://www.w3.org/1999/xlink"
 width="104px" height="87px">
<path fill-rule="evenodd"  fill="rgb(206, 220, 229)"
 d="M81.969,86.340 L39.187,86.340 C27.365,86.340 17.772,76.758 17.742,64.920 L17.742,17.785 L0.640,17.785 L0.640,9.195 L17.742,0.660 L81.969,0.660 C93.783,0.660 103.360,10.250 103.360,22.080 L103.360,64.920 C103.360,76.749 93.783,86.340 81.969,86.340 ZM94.782,23.897 C94.782,15.777 88.208,9.195 80.100,9.195 L41.002,9.195 C32.893,9.195 26.320,15.777 26.320,23.897 L26.320,63.048 C26.320,71.167 32.893,77.750 41.002,77.750 L80.100,77.750 C88.208,77.750 94.782,71.167 94.782,63.048 L94.782,23.897 ZM71.219,43.500 C67.681,43.500 64.812,40.615 64.812,37.057 L64.812,32.817 C64.812,29.259 67.681,26.375 71.219,26.375 C74.757,26.375 77.625,29.259 77.625,32.817 L77.625,37.057 C77.625,40.615 74.757,43.500 71.219,43.500 ZM66.791,63.538 C66.791,63.540 66.792,63.541 66.792,63.543 C67.213,65.198 66.236,66.886 64.592,67.342 C63.196,67.726 61.752,67.911 60.303,67.893 C53.007,67.913 46.615,63.005 44.741,55.944 C44.320,54.290 45.298,52.601 46.941,52.145 C48.552,51.702 50.216,52.650 50.658,54.263 C50.666,54.291 50.673,54.319 50.680,54.347 C52.122,59.691 57.616,62.852 62.952,61.408 C62.968,61.404 62.983,61.400 62.998,61.396 C64.636,60.939 66.334,61.898 66.791,63.538 ZM49.828,43.500 C46.290,43.500 43.422,40.615 43.422,37.057 L43.422,32.817 C43.422,29.259 46.290,26.375 49.828,26.375 C53.366,26.375 56.234,29.259 56.234,32.817 L56.234,37.057 C56.234,40.615 53.366,43.500 49.828,43.500 Z"/>
</svg>