<?xml version="1.0" encoding="utf-8"?>
<!-- Generator: Adobe Illustrator 26.0.3, SVG Export Plug-In . SVG Version: 6.00 Build 0)  -->
<svg version="1.1" id="Layer_1" xmlns="http://www.w3.org/2000/svg" xmlns:xlink="http://www.w3.org/1999/xlink" x="0px" y="0px"
	 viewBox="0 0 809.9 841.3" style="enable-background:new 0 0 809.9 841.3;" xml:space="preserve">
<style type="text/css">
	.st0{fill:#F9CD15;}
	.st1{fill:#F7A411;}
	.st2{fill:#FFFFFF;}
</style>
<g>
	<g>
		<path class="st0" d="M460.8,0.2c-10.7-1.9-17.5,11-9.9,18.7c66.9,67.5,108.8,164.7,108.8,272.6c0,204-149.7,369.4-334.5,369.4
			c-78.1,0-149.9-29.5-206.8-79c-9-7.8-22.4,2.2-17.4,13c67.1,145.5,214.3,246.4,385,246.4c234.1,0,423.8-189.7,423.8-423.8
			C809.9,208.9,659.3,35.5,460.8,0.2z"/>
		<path class="st1" d="M809.9,417.5c0,234.1-189.8,423.8-423.8,423.8c-63.1,0-123-13.8-176.8-38.5c44,15.5,91.2,23.9,140.5,23.9
			c234.1,0,423.8-189.7,423.8-423.8c0-171-101.2-318.3-247-385.3C691.6,75.5,809.9,232.6,809.9,417.5z"/>
	</g>
	<path class="st0" d="M158.3,474.7l3.9,14.2c0.1,0.5,0.5,0.9,1.1,1.1l14.1,4.4c1.3,0.4,1.5,2.1,0.4,2.9l-12.3,8.1
		c-0.5,0.3-0.7,0.8-0.7,1.4l0.2,14.8c0,1.3-1.5,2.1-2.6,1.3l-11.6-9.2c-0.4-0.3-1-0.4-1.5-0.3l-14,4.7c-1.3,0.4-2.5-0.8-2-2.1
		l5.2-13.8c0.2-0.5,0.1-1.1-0.2-1.5l-8.8-11.8c-0.8-1.1,0-2.6,1.4-2.6l14.8,0.7c0.5,0,1.1-0.2,1.4-0.7l8.5-12.1
		C156.3,473.1,158,473.4,158.3,474.7z"/>
	<path class="st0" d="M423.2,226.9l13.5,21.4c0.5,0.8,1.4,1.3,2.3,1.3l25.3,0.2c2.3,0,3.6,2.7,2.1,4.5l-16.1,19.5
		c-0.6,0.7-0.8,1.7-0.5,2.6l7.7,24.1c0.7,2.2-1.5,4.2-3.6,3.4l-23.5-9.3c-0.9-0.3-1.8-0.2-2.6,0.3l-20.6,14.7
		c-1.9,1.3-4.5-0.1-4.3-2.4l1.6-25.2c0.1-0.9-0.4-1.8-1.1-2.4l-20.4-15c-1.9-1.4-1.3-4.3,0.9-4.9l24.5-6.3c0.9-0.2,1.6-0.9,1.9-1.8
		l8-24C419,225.4,422,225,423.2,226.9z"/>
	<circle id="XMLID_10_" class="st2" cx="192.4" cy="246.4" r="21.4"/>
</g>
</svg>
