<?xml version="1.0" encoding="utf-8"?>
<!-- Generator: Adobe Illustrator 26.0.3, SVG Export Plug-In . SVG Version: 6.00 Build 0)  -->
<svg version="1.1" id="Layer_1" xmlns="http://www.w3.org/2000/svg" xmlns:xlink="http://www.w3.org/1999/xlink" x="0px" y="0px"
	 viewBox="0 0 1077.6 1077.6" style="enable-background:new 0 0 1077.6 1077.6;" xml:space="preserve">
<style type="text/css">
	.st0{fill:#F7A411;}
	.st1{fill:#F9CD15;}
	.st2{opacity:0.46;fill:#F4B653;}
	.st3{opacity:0.51;fill:#FFFFFF;}
</style>
<g>
	<path class="st0" d="M1077.6,538.8c-229.1,85.5-263.8,162.9-157.8,381c-218-105.9-295.5-71.3-381,157.8
		c-85.5-229.1-162.9-263.8-381-157.8c105.9-218,71.3-295.5-157.8-381c229.1-85.5,263.8-162.9,157.8-381
		c218,105.9,295.5,71.3,381-157.8c85.5,229.1,162.9,263.8,381,157.8C813.8,375.8,848.5,453.3,1077.6,538.8z"/>
	<g>
		<g>
			
				<ellipse transform="matrix(0.7071 -0.7071 0.7071 0.7071 -223.1768 538.7964)" class="st1" cx="538.8" cy="538.8" rx="315.8" ry="315.8"/>
			<path class="st2" d="M571.4,853c-10.7,1.1-21.6,1.7-32.6,1.7C364.4,854.6,223,713.2,223,538.8C223,364.4,364.4,223,538.8,223
				c11,0,21.9,0.6,32.6,1.7c-159.1,16.3-283.2,150.7-283.2,314.2C288.2,702.2,412.3,836.7,571.4,853z"/>
		</g>
		<path class="st3" d="M752.7,405.4c-2.8,0-5.5-1.6-6.7-4.3c-20.2-43.9-53.6-75.4-99.2-93.4c-34.1-13.5-62.2-14-62.5-14
			c-4.1,0-7.4-3.4-7.3-7.5c0.1-4.1,3.4-7.4,7.5-7.3c1.3,0,31.2,0.5,67.7,15c33.9,13.4,79.9,41.8,107.2,101c1.7,3.7,0.1,8.1-3.6,9.8
			C754.8,405.2,753.7,405.4,752.7,405.4z"/>
	</g>
</g>
</svg>
