<?xml version="1.0" encoding="utf-8"?>
<!-- Generator: Adobe Illustrator 26.0.3, SVG Export Plug-In . SVG Version: 6.00 Build 0)  -->
<svg version="1.1" id="Layer_1" xmlns="http://www.w3.org/2000/svg" xmlns:xlink="http://www.w3.org/1999/xlink" x="0px" y="0px"
	 viewBox="0 0 125.1 47.9" style="enable-background:new 0 0 125.1 47.9;" xml:space="preserve">
<style type="text/css">
	.st0{fill:#C79B2D;}
	.st1{fill:#FFFFFF;}
	.st2{fill:#045B4C;}
</style>
<path class="st0" d="M119.7,48.3H5.4c-3,0-5.4-2.4-5.4-5.4V5.4C0,2.4,2.4,0,5.4,0h114.3c3,0,5.4,2.4,5.4,5.4v37.5
	C125.1,45.9,122.7,48.3,119.7,48.3"/>
<path class="st1" d="M27.4,33.2L19.8,7.5H9.2C12.7,18.1,20.3,41,20.4,41h13.4l11-33.5H34.2L27.4,33.2z"/>
<polygon class="st1" points="116,7.5 80.7,7.5 83.3,15.2 94.6,15.2 94.6,41 104.7,41 104.7,15.2 116,15.2 "/>
<path class="st2" d="M79.4,17.4l1.1,2.4c0,0-7.6,6.4-15.7,21.2c0,0-3.5-6.2-4.8-8l1.3-4.9l3.5,3.9C64.7,32,73.8,21,79.4,17.4"/>
<path class="st1" d="M66.8,27.4c2.1-2.3,4.8-5.3,7.5-7.7c-2.2-6.6-4.1-12.2-4.2-12.2H56.7L45.8,41h10.5l6.8-27
	C63.1,14,65,20.7,66.8,27.4"/>
<path class="st1" d="M69.2,36.1C70,39,70.6,41,70.6,41h10.9c0,0-2.4-7.2-5-15C74.4,28.4,71.9,31.8,69.2,36.1"/>
</svg>
